<?xml version="1.0" encoding="UTF-8"?>
<svg version="1.1" xmlns="http://www.w3.org/2000/svg" width="1408" height="736">
<path d="M0 0 C464.64 0 929.28 0 1408 0 C1408 242.88 1408 485.76 1408 736 C943.36 736 478.72 736 0 736 C0 493.12 0 250.24 0 0 Z " fill="#FDFEFD" transform="translate(0,0)"/>
<path d="M0 0 C1.2686045 0.75583739 2.53773947 1.51078508 3.80737305 2.26489258 C7.01786508 4.17521089 10.22112714 6.09725484 13.42156982 8.02435303 C16.22813346 9.71379997 19.0381329 11.39751224 21.84765625 13.08203125 C24.95102685 14.94405361 28.0536947 16.80719902 31.15429688 18.67382812 C38.07261156 22.83538597 45.02266538 26.93823793 52 31 C53.44524048 31.84268433 53.44524048 31.84268433 54.91967773 32.70239258 C59.90370135 35.60555263 64.89390163 38.49748561 69.89404297 41.37277222 C72.50285158 42.87504154 75.10771066 44.38407893 77.71203613 45.894104 C78.9647525 46.61830692 80.21917164 47.33957425 81.47546387 48.05755615 C95.29432299 55.95771893 106.62131953 63.7201903 112.25 79.125 C113.13992583 82.79994915 113.37749205 86.21076997 113.38371277 89.98738098 C113.38797775 91.16067459 113.39224274 92.3339682 113.39663696 93.54281616 C113.39618378 94.82137482 113.39573059 96.09993347 113.39526367 97.41723633 C113.39825755 98.78428743 113.40166061 100.15133769 113.40544128 101.51838684 C113.41426283 105.2251258 113.41661864 108.93184166 113.41725707 112.6385901 C113.41796869 114.95684883 113.42010516 117.27510172 113.42275429 119.59335899 C113.43200205 127.68797553 113.43608994 135.78257562 113.43530273 143.87719727 C113.4347023 151.41105016 113.44524888 158.94483137 113.4610464 166.47866613 C113.47414262 172.95612416 113.47948575 179.43355883 113.47884732 185.91102999 C113.47859292 189.77556453 113.48141209 193.64003536 113.49202538 197.50455666 C113.5017413 201.14154544 113.50176171 204.77841008 113.49450874 208.41540337 C113.49297273 210.37714111 113.50128546 212.33887893 113.50994873 214.30059814 C113.47894584 223.03533676 112.73687703 230.0718633 108.375 237.8125 C107.88257813 238.70324219 107.39015625 239.59398437 106.8828125 240.51171875 C103.73551672 245.54889788 100.66167564 248.82498169 95.625 252 C95.03219238 252.37382812 94.43938477 252.74765625 93.82861328 253.1328125 C86.58963336 257.63469226 79.15811056 261.81789925 71.75976562 266.05004883 C63.46987224 270.80499547 55.27877333 275.7032291 47.125 280.6875 C36.50470963 287.17625357 25.80715389 293.51674052 15.0390625 299.7578125 C11.06222732 302.06402605 7.10023327 304.3933239 3.1484375 306.7421875 C2.15763184 307.3309668 1.16682617 307.91974609 0.14599609 308.52636719 C-1.71961023 309.6367348 -3.58396853 310.74920333 -5.44677734 311.86425781 C-17.02868917 318.7527156 -28.03707966 324.60146113 -41.91162109 321.66796875 C-49.15433753 319.74929182 -55.22188972 316.31587568 -61.625 312.5 C-62.74777344 311.84193359 -63.87054687 311.18386719 -65.02734375 310.50585938 C-74.50615201 304.93865716 -83.88794196 299.20827234 -93.26708984 293.4753418 C-102.26075967 287.98547113 -111.35665113 282.68936366 -120.49926758 277.45068359 C-129.58274954 272.24117299 -138.5689755 266.88362524 -147.52636719 261.4609375 C-149.69866485 260.15584167 -151.88174302 258.87133622 -154.0703125 257.59375 C-166.42886548 250.36254021 -174.65659823 243.87718478 -179.75 230.125 C-180.56480103 226.06748717 -180.87999653 222.21383918 -180.89717102 218.07989502 C-180.90432632 216.89128876 -180.91148163 215.7026825 -180.91885376 214.47805786 C-180.92154266 213.1875351 -180.92423157 211.89701233 -180.92700195 210.56738281 C-180.93327391 209.18372429 -180.93992135 207.80006742 -180.94691467 206.41641235 C-180.96786778 201.88699497 -180.9783078 197.35757758 -180.98828125 192.828125 C-180.99233187 191.26384209 -180.99644888 189.69955936 -181.00063133 188.13527679 C-181.01966258 180.78511737 -181.03389878 173.43496786 -181.0422433 166.08478856 C-181.05201284 157.62107489 -181.07833353 149.15762293 -181.11874419 140.69400144 C-181.14896727 134.13751297 -181.16371796 127.5810993 -181.16702431 121.02454257 C-181.16936739 117.11515325 -181.17823076 113.20604418 -181.20348549 109.29673004 C-181.22688075 105.61612476 -181.23095404 101.93598206 -181.22072411 98.2553215 C-181.21999807 96.27485929 -181.23900735 94.29441995 -181.25878906 92.3140564 C-181.20411879 82.86708014 -179.24437652 75.26649361 -173.9375 67.375 C-173.49792969 66.69953125 -173.05835938 66.0240625 -172.60546875 65.328125 C-167.71257819 59.51846126 -161.63020471 55.60313435 -155.125 51.8125 C-154.27236572 51.3081543 -153.41973145 50.80380859 -152.54125977 50.28417969 C-149.6153348 48.5566925 -146.68304723 46.84036447 -143.75 45.125 C-142.06589226 44.13677595 -140.38178918 43.14854391 -138.69787598 42.1599884 C-134.44916955 39.66591446 -130.1992778 37.17387932 -125.94677734 34.6862793 C-116.59608463 29.21569917 -107.27219198 23.70143004 -97.95751953 18.16967773 C-91.94625086 14.60277953 -85.92693751 11.05053642 -79.89453125 7.51953125 C-79.23858978 7.13554169 -78.58264832 6.75155212 -77.90682983 6.35592651 C-74.73591328 4.50027902 -71.56394629 2.64645386 -68.390625 0.79492188 C-63.01474931 -2.34596846 -57.65569665 -5.49381074 -52.42871094 -8.87890625 C-34.37356088 -19.59225882 -15.90595921 -9.60636185 0 0 Z " fill="#F1C225" transform="translate(737.75,205.875)"/>
<path d="M0 0 C1.86011719 -0.05994141 1.86011719 -0.05994141 3.7578125 -0.12109375 C9.06687754 0.2426212 13.32804989 2.85321526 17.875 5.4375 C18.66358398 5.88488525 19.45216797 6.33227051 20.26464844 6.79321289 C22.7533333 8.23490384 25.22177549 9.70690167 27.6875 11.1875 C29.62462862 12.34176932 31.56214936 13.49538076 33.5 14.6484375 C34.52738281 15.26041992 35.55476562 15.87240234 36.61328125 16.50292969 C40.02662326 18.52742985 43.4487529 20.53651885 46.875 22.5390625 C47.76894722 23.06155579 47.76894722 23.06155579 48.68095398 23.59460449 C49.90010352 24.30704555 51.11927585 25.0194476 52.33847046 25.73181152 C63.06383515 32.00038527 73.75056813 38.32755118 84.3815918 44.75537109 C90.09702109 48.20248224 95.84390386 51.58468987 101.6328125 54.90625 C102.95517973 55.66844355 104.27744579 56.43081263 105.59960938 57.19335938 C107.52439758 58.30338193 109.45078179 59.40967492 111.38500977 60.50317383 C120.91780202 65.89270699 130.48725645 71.36218455 133.875 82.4375 C135.41048049 91.11821551 136.98974783 103.5019255 132.75732422 111.56738281 C129.79007584 115.04058639 126.05097028 117.12488246 122.04541016 119.22460938 C117.99323177 121.48908882 114.35723973 124.37621003 110.625 127.125 C109.18821912 128.15803401 107.74593082 129.1834748 106.296875 130.19921875 C105.68424805 130.63194092 105.07162109 131.06466309 104.44042969 131.51049805 C102.875 132.4375 102.875 132.4375 100.875 132.4375 C100.85518066 131.69064941 100.83536133 130.94379883 100.81494141 130.17431641 C100.71991789 126.80334395 100.61014741 123.43301071 100.5 120.0625 C100.45359375 118.2990625 100.45359375 118.2990625 100.40625 116.5 C100.36757813 115.37851562 100.32890625 114.25703125 100.2890625 113.1015625 C100.2576416 112.06467285 100.2262207 111.0277832 100.19384766 109.95947266 C100.11545528 107.26940165 100.11545528 107.26940165 97.875 105.4375 C94.905 105.1075 91.935 104.7775 88.875 104.4375 C88.875 116.3175 88.875 128.1975 88.875 140.4375 C87.225 140.7675 85.575 141.0975 83.875 141.4375 C83.875 123.9475 83.875 106.4575 83.875 88.4375 C78.079375 88.375625 72.28375 88.31375 66.3125 88.25 C64.5173999 88.22268799 62.7222998 88.19537598 60.87280273 88.16723633 C50.80475052 88.07830918 41.65059899 88.94550172 31.875 91.4375 C31.09133057 91.63641846 30.30766113 91.83533691 29.50024414 92.0402832 C21.51360048 94.24373668 14.45190749 97.47085395 7.4609375 101.88671875 C2.71415707 104.73335294 2.71415707 104.73335294 -0.125 105.4375 C-2.38671875 104.34765625 -2.38671875 104.34765625 -4.8125 102.5 C-9.63912205 99.21089062 -14.40708328 96.82325339 -19.8125 94.6875 C-20.4933667 94.40656494 -21.1742334 94.12562988 -21.87573242 93.83618164 C-35.83111812 88.47510594 -49.90079238 88.01997946 -64.625 88.25 C-66.33462341 88.26509924 -68.04425996 88.27877823 -69.75390625 88.29101562 C-73.87793875 88.3235488 -78.00131686 88.37502966 -82.125 88.4375 C-82.12055878 89.18030212 -82.11611755 89.92310425 -82.11154175 90.68841553 C-82.07145104 97.69204178 -82.04100849 104.69562822 -82.02137566 111.69933701 C-82.01094287 115.29993336 -81.99679299 118.90043482 -81.97412109 122.50097656 C-81.95237455 125.97635073 -81.94042757 129.45163366 -81.93524551 132.92707062 C-81.92975718 134.89686596 -81.91414709 136.86662465 -81.89840698 138.83636475 C-81.89818039 140.63777924 -81.89818039 140.63777924 -81.89794922 142.47558594 C-81.893508 143.53259705 -81.88906677 144.58960815 -81.88449097 145.6786499 C-82.12561862 148.44459611 -82.69919926 150.08377898 -84.125 152.4375 C-85.115 152.1075 -86.105 151.7775 -87.125 151.4375 C-87.125 135.9275 -87.125 120.4175 -87.125 104.4375 C-93.14468036 104.96646837 -93.14468036 104.96646837 -98.125 107.4375 C-98.28517166 110.24726518 -98.38450534 113.03523596 -98.44140625 115.84765625 C-98.46218735 116.68969101 -98.48296844 117.53172577 -98.50437927 118.39927673 C-98.56996812 121.09943179 -98.62880276 123.79968717 -98.6875 126.5 C-98.73067637 128.32618241 -98.77429036 130.15235454 -98.81835938 131.97851562 C-98.92565894 136.46473992 -99.02689966 140.9510655 -99.125 145.4375 C-109.58852355 142.97931897 -124.45293268 135.10956732 -132.125 127.4375 C-132.4198332 121.33221352 -132.43930284 115.22427206 -132.47509766 109.11254883 C-132.49157123 107.05351389 -132.51874584 104.99453408 -132.55712891 102.93579102 C-132.61235404 99.95819593 -132.6338496 96.98194704 -132.6484375 94.00390625 C-132.67110687 93.09620987 -132.69377625 92.18851349 -132.71713257 91.25331116 C-132.69190352 83.49056612 -130.35536494 77.11902937 -125.1980896 71.24147034 C-119.79455462 65.89272544 -113.21287458 62.48415659 -106.59375 58.89453125 C-101.91910186 56.35212451 -97.36430996 53.62991025 -92.8125 50.875 C-84.81294253 46.04707325 -76.79024423 41.25986755 -68.75 36.5 C-67.88797974 35.98956146 -67.88797974 35.98956146 -67.00854492 35.46881104 C-57.51578138 29.84816584 -48.01940749 24.23361455 -38.51953125 18.625 C-34.68110286 16.35835102 -30.84571028 14.08664547 -27.01171875 11.8125 C-25.50315308 10.91857544 -25.50315308 10.91857544 -23.96411133 10.0065918 C-22.03491716 8.86331266 -20.10633615 7.71899804 -18.1784668 6.57348633 C-16.87969604 5.80427856 -16.87969604 5.80427856 -15.5546875 5.01953125 C-14.79397949 4.56811768 -14.03327148 4.1167041 -13.24951172 3.65161133 C-8.56287241 0.97330091 -5.51311682 0.09622483 0 0 Z " fill="#F7D65C" transform="translate(703.125,206.5625)"/>
<path d="M0 0 C1.2686045 0.75583739 2.53773947 1.51078508 3.80737305 2.26489258 C7.01786508 4.17521089 10.22112714 6.09725484 13.42156982 8.02435303 C16.22813346 9.71379997 19.0381329 11.39751224 21.84765625 13.08203125 C24.95102685 14.94405361 28.0536947 16.80719902 31.15429688 18.67382812 C38.07261156 22.83538597 45.02266538 26.93823793 52 31 C53.44524048 31.84268433 53.44524048 31.84268433 54.91967773 32.70239258 C59.90370135 35.60555263 64.89390163 38.49748561 69.89404297 41.37277222 C72.50285158 42.87504154 75.10771066 44.38407893 77.71203613 45.894104 C78.9647525 46.61830692 80.21917164 47.33957425 81.47546387 48.05755615 C95.29432299 55.95771893 106.62131953 63.7201903 112.25 79.125 C113.13992583 82.79994915 113.37749205 86.21076997 113.38371277 89.98738098 C113.38797775 91.16067459 113.39224274 92.3339682 113.39663696 93.54281616 C113.39618378 94.82137482 113.39573059 96.09993347 113.39526367 97.41723633 C113.39825755 98.78428743 113.40166061 100.15133769 113.40544128 101.51838684 C113.41426283 105.2251258 113.41661864 108.93184166 113.41725707 112.6385901 C113.41796869 114.95684883 113.42010516 117.27510172 113.42275429 119.59335899 C113.43200205 127.68797553 113.43608994 135.78257562 113.43530273 143.87719727 C113.4347023 151.41105016 113.44524888 158.94483137 113.4610464 166.47866613 C113.47414262 172.95612416 113.47948575 179.43355883 113.47884732 185.91102999 C113.47859292 189.77556453 113.48141209 193.64003536 113.49202538 197.50455666 C113.5017413 201.14154544 113.50176171 204.77841008 113.49450874 208.41540337 C113.49297273 210.37714111 113.50128546 212.33887893 113.50994873 214.30059814 C113.47894584 223.03533676 112.73687703 230.0718633 108.375 237.8125 C107.88257813 238.70324219 107.39015625 239.59398437 106.8828125 240.51171875 C103.73551672 245.54889788 100.66167564 248.82498169 95.625 252 C95.03219238 252.37382812 94.43938477 252.74765625 93.82861328 253.1328125 C86.58963336 257.63469226 79.15811056 261.81789925 71.75976562 266.05004883 C63.46987224 270.80499547 55.27877333 275.7032291 47.125 280.6875 C36.50470963 287.17625357 25.80715389 293.51674052 15.0390625 299.7578125 C11.06222732 302.06402605 7.10023327 304.3933239 3.1484375 306.7421875 C2.15763184 307.3309668 1.16682617 307.91974609 0.14599609 308.52636719 C-1.71961023 309.6367348 -3.58396853 310.74920333 -5.44677734 311.86425781 C-17.02868917 318.7527156 -28.03707966 324.60146113 -41.91162109 321.66796875 C-49.15433753 319.74929182 -55.22188972 316.31587568 -61.625 312.5 C-62.74777344 311.84193359 -63.87054687 311.18386719 -65.02734375 310.50585938 C-74.50615201 304.93865716 -83.88794196 299.20827234 -93.26708984 293.4753418 C-102.26075967 287.98547113 -111.35665113 282.68936366 -120.49926758 277.45068359 C-129.58274954 272.24117299 -138.5689755 266.88362524 -147.52636719 261.4609375 C-149.69866485 260.15584167 -151.88174302 258.87133622 -154.0703125 257.59375 C-166.42886548 250.36254021 -174.65659823 243.87718478 -179.75 230.125 C-180.56480103 226.06748717 -180.87999653 222.21383918 -180.89717102 218.07989502 C-180.90432632 216.89128876 -180.91148163 215.7026825 -180.91885376 214.47805786 C-180.92154266 213.1875351 -180.92423157 211.89701233 -180.92700195 210.56738281 C-180.93327391 209.18372429 -180.93992135 207.80006742 -180.94691467 206.41641235 C-180.96786778 201.88699497 -180.9783078 197.35757758 -180.98828125 192.828125 C-180.99233187 191.26384209 -180.99644888 189.69955936 -181.00063133 188.13527679 C-181.01966258 180.78511737 -181.03389878 173.43496786 -181.0422433 166.08478856 C-181.05201284 157.62107489 -181.07833353 149.15762293 -181.11874419 140.69400144 C-181.14896727 134.13751297 -181.16371796 127.5810993 -181.16702431 121.02454257 C-181.16936739 117.11515325 -181.17823076 113.20604418 -181.20348549 109.29673004 C-181.22688075 105.61612476 -181.23095404 101.93598206 -181.22072411 98.2553215 C-181.21999807 96.27485929 -181.23900735 94.29441995 -181.25878906 92.3140564 C-181.20411879 82.86708014 -179.24437652 75.26649361 -173.9375 67.375 C-173.49792969 66.69953125 -173.05835938 66.0240625 -172.60546875 65.328125 C-167.71257819 59.51846126 -161.63020471 55.60313435 -155.125 51.8125 C-154.27236572 51.3081543 -153.41973145 50.80380859 -152.54125977 50.28417969 C-149.6153348 48.5566925 -146.68304723 46.84036447 -143.75 45.125 C-142.06589226 44.13677595 -140.38178918 43.14854391 -138.69787598 42.1599884 C-134.44916955 39.66591446 -130.1992778 37.17387932 -125.94677734 34.6862793 C-116.59608463 29.21569917 -107.27219198 23.70143004 -97.95751953 18.16967773 C-91.94625086 14.60277953 -85.92693751 11.05053642 -79.89453125 7.51953125 C-79.23858978 7.13554169 -78.58264832 6.75155212 -77.90682983 6.35592651 C-74.73591328 4.50027902 -71.56394629 2.64645386 -68.390625 0.79492188 C-63.01474931 -2.34596846 -57.65569665 -5.49381074 -52.42871094 -8.87890625 C-34.37356088 -19.59225882 -15.90595921 -9.60636185 0 0 Z M-57.16845703 9.5078125 C-59.90204249 11.22024583 -62.6625956 12.88008653 -65.43359375 14.53125 C-69.63054842 17.03230762 -73.81822976 19.54785662 -78 22.07421875 C-84.98366749 26.28056999 -92.02029049 30.39285038 -99.0625 34.5 C-110.13076496 40.95744639 -121.11354194 47.5443464 -132.03833008 54.24169922 C-140.99668655 59.7205644 -140.99668655 59.7205644 -145.51147461 62.23754883 C-146.13933365 62.58873276 -146.76719269 62.93991669 -147.41407776 63.30174255 C-149.16853669 64.27759059 -150.92858499 65.24337004 -152.68896484 66.20849609 C-159.3696452 70.3912478 -164.61264337 76.44504973 -166.75 84.125 C-167.20522641 88.64507309 -167.19062838 93.14839067 -167.18579102 97.68847656 C-167.19477853 99.06081458 -167.20498905 100.43314506 -167.21632385 101.8054657 C-167.24273043 105.5185222 -167.24985342 109.23137103 -167.25177121 112.94451237 C-167.25390953 115.26918992 -167.26032537 117.59381536 -167.26826286 119.91847992 C-167.29598769 128.04252957 -167.30827227 136.16643195 -167.3059082 144.29052734 C-167.30410768 151.84050645 -167.33573519 159.38984127 -167.38313919 166.93965745 C-167.42248716 173.44015953 -167.4384548 179.9404521 -167.43654197 186.44107223 C-167.43578042 190.31537931 -167.44414261 194.18911358 -167.47607613 198.06330109 C-167.50532639 201.71131285 -167.50521991 205.35821247 -167.48352623 209.00626564 C-167.47894148 210.96626359 -167.50378766 212.92626306 -167.52984619 214.88609314 C-167.44157598 223.24350519 -165.78108141 229.3540597 -160.75 236.125 C-154.91151856 241.82898303 -147.74159168 245.61472562 -140.625 249.5 C-132.20929055 254.1391307 -123.9427758 258.97371993 -115.71832275 263.94024658 C-112.42497118 265.92254828 -109.1188919 267.8833015 -105.8125 269.84375 C-105.14969025 270.23696442 -104.48688049 270.63017883 -103.8039856 271.03530884 C-101.78617381 272.23218219 -99.76812665 273.42865765 -97.75 274.625 C-88.57194002 280.06573976 -79.40527071 285.52439148 -70.25878906 291.01806641 C-65.22078375 294.04399708 -60.1767799 297.05961796 -55.125 300.0625 C-54.18527344 300.62517578 -53.24554687 301.18785156 -52.27734375 301.76757812 C-51.36855469 302.30705078 -50.45976563 302.84652344 -49.5234375 303.40234375 C-48.32340088 304.11765259 -48.32340088 304.11765259 -47.09912109 304.84741211 C-42.87196845 307.14638216 -39.3275962 308.42942111 -34.5 308.5 C-33.62859375 308.52835938 -32.7571875 308.55671875 -31.859375 308.5859375 C-23.27273347 307.3130434 -15.55477386 301.86915316 -8.1875 297.5625 C-7.07125244 296.91410156 -5.95500488 296.26570313 -4.80493164 295.59765625 C15.03736016 284.05479699 34.73877906 272.26686063 54.40429688 260.42602539 C59.38733342 257.4285964 64.38181939 254.45381075 69.40234375 251.51953125 C70.39669434 250.9373584 71.39104492 250.35518555 72.41552734 249.75537109 C74.27401396 248.66934832 76.13482264 247.58728392 77.99853516 246.51025391 C88.70596604 240.62643036 88.70596604 240.62643036 96.1875 231.375 C96.56777344 230.61703125 96.94804688 229.8590625 97.33984375 229.078125 C97.64019531 228.43359375 97.94054687 227.7890625 98.25 227.125 C98.58 226.465 98.91 225.805 99.25 225.125 C99.35420785 223.270278 99.39388566 221.41180412 99.40390015 219.55418396 C99.41680084 217.77735481 99.41680084 217.77735481 99.42996216 215.96463013 C99.43422211 214.65815521 99.43848206 213.3516803 99.44287109 212.00561523 C99.45077172 210.62092381 99.45904065 209.23623444 99.46765137 207.85154724 C99.49388739 203.29558278 99.50918571 198.73960909 99.5234375 194.18359375 C99.52879751 192.61434486 99.53417502 191.04509602 99.53956985 189.47584724 C99.56120549 182.94508759 99.57993957 176.41433041 99.59119225 169.88354397 C99.60741207 160.53168699 99.64053371 151.1802468 99.69759309 141.82854694 C99.73635797 135.25007645 99.75583295 128.67171709 99.76111281 122.09313542 C99.76475884 118.16632117 99.77669849 114.2399513 99.80921555 110.31326103 C99.83941017 106.61376534 99.84556815 102.91498016 99.83383179 99.21538734 C99.8335077 97.22154693 99.85790021 95.22774963 99.88320923 93.23406982 C99.82230635 84.41697658 98.1211721 78.63885696 92.36767578 71.93017578 C87.25439591 67.70592039 81.88343624 64.28064509 76.125 61 C74.15092408 59.85436925 72.17696892 58.70853041 70.203125 57.5625 C69.20603516 56.98757813 68.20894531 56.41265625 67.18164062 55.8203125 C62.72763161 53.24464307 58.30166585 50.62228677 53.875 48 C52.99150879 47.47825195 52.10801758 46.95650391 51.19775391 46.41894531 C45.67996419 43.16005189 40.16975985 39.88863658 34.6640625 36.609375 C-9.3632138 4.46346502 -9.3632138 4.46346502 -57.16845703 9.5078125 Z " fill="#282828" transform="translate(737.75,205.875)"/>
<path d="M0 0 C2.26057128 -0.00954129 4.52016621 -0.04048913 6.78051758 -0.07226562 C20.11879207 -0.17140843 33.00558167 1.36014849 45.4387207 6.49023438 C46.56153442 6.93387329 46.56153442 6.93387329 47.70703125 7.38647461 C53.244435 9.65723431 58.09064012 12.51426076 62.86450195 16.15039062 C65.10017703 17.52411001 65.10017703 17.52411001 67.58325195 16.63085938 C70.28816228 15.15167646 72.89461382 13.57420455 75.5012207 11.92773438 C91.595414 2.45245044 109.73186238 -0.28917622 128.1015625 -0.04101562 C130.48168243 -0.00919119 132.86114111 0.00003776 135.24145508 0.00585938 C136.76164554 0.01500686 138.28182926 0.02537531 139.80200195 0.03710938 C140.51020584 0.04135925 141.21840973 0.04560913 141.94807434 0.04998779 C146.89137583 0.12281194 146.89137583 0.12281194 149.1262207 1.24023438 C149.1262207 40.18023437 149.1262207 79.12023437 149.1262207 119.24023438 C139.5562207 119.57023437 129.9862207 119.90023437 120.1262207 120.24023438 C101.84996608 122.72438549 86.20249012 125.9685057 70.1496582 135.08007812 C67.1262207 136.24023438 67.1262207 136.24023438 64.72387695 135.64257812 C63.43803711 134.94841797 63.43803711 134.94841797 62.1262207 134.24023438 C60.89285922 133.70021 59.6540108 133.17262881 58.41137695 132.65429688 C57.73284668 132.36522461 57.05431641 132.07615234 56.35522461 131.77832031 C41.88239114 125.6786587 27.63009233 122.42201588 12.1262207 120.24023438 C12.4562207 117.60023438 12.7862207 114.96023438 13.1262207 112.24023438 C16.38862294 113.3005151 19.45635785 114.39629921 22.5637207 115.86523438 C33.10031012 119.78629341 45.07329151 117.44965336 55.1262207 113.24023438 C66.22047452 107.98096679 72.28786647 100.34851582 77.1262207 89.24023438 C77.49360352 88.50417969 77.86098633 87.768125 78.23950195 87.00976562 C81.17461233 77.84239443 80.2278466 65.29558641 76.38793945 56.59179688 C74.22926203 52.56850336 71.94080967 48.84044891 69.1262207 45.24023438 C68.63637695 44.61246094 68.1465332 43.9846875 67.6418457 43.33789062 C62.15628005 37.13268394 52.45891844 31.80013753 44.12426758 31.06323242 C27.46489547 30.61534228 16.70319869 32.36696662 4.1887207 44.04882812 C-4.67227589 53.2344733 -6.53257903 63.22513441 -6.40844727 75.57080078 C-6.16199853 82.42058955 -4.80738522 88.03135758 -1.8737793 94.24023438 C-1.50793078 95.56501502 -1.16320574 96.89668638 -0.8737793 98.24023438 C-2.1422168 98.54960937 -2.1422168 98.54960937 -3.4362793 98.86523438 C-8.02687765 100.70147372 -12.60272204 103.69811985 -14.8737793 108.24023438 C-15.5337793 108.24023438 -16.1937793 108.24023438 -16.8737793 108.24023438 C-16.8737793 72.93023437 -16.8737793 37.62023437 -16.8737793 1.24023438 C-11.48791551 -0.55505355 -5.64159144 0.01433847 0 0 Z " fill="#595958" transform="translate(637.873779296875,293.759765625)"/>
<path d="M0 0 C9.1989928 5.96108017 14.9232533 14.09451539 17.6875 24.78515625 C19.56096566 35.0738611 17.86992709 44.06704393 13.1640625 53.40234375 C10.4939361 57.15050249 7.55543327 60.30048024 4.1640625 63.40234375 C3.60976563 63.92441406 3.05546875 64.44648438 2.484375 64.984375 C-4.41761153 70.66735396 -14.62132968 73.13132183 -23.42578125 72.73046875 C-29.06836606 71.96227244 -34.16671534 70.26786635 -39.2109375 67.65234375 C-41.69025666 66.22760135 -41.69025666 66.22760135 -44.0859375 66.46484375 C-46.47048428 67.74227953 -46.9232 68.87476299 -47.8359375 71.40234375 C-47.9913501 72.58123169 -47.9913501 72.58123169 -48.14990234 73.78393555 C-48.99436297 77.00701036 -50.23564933 78.25017932 -52.625 80.546875 C-53.40230469 81.30677734 -54.17960938 82.06667969 -54.98046875 82.84960938 C-55.79902344 83.63013672 -56.61757813 84.41066406 -57.4609375 85.21484375 C-62.64138998 90.22317423 -67.69783758 95.20911454 -72.33520508 100.73120117 C-75.4345682 104.18250108 -78.32227267 106.1552148 -82.8984375 106.90234375 C-86.72991638 106.25017713 -88.27027248 105.33453235 -90.8359375 102.40234375 C-92.42556014 97.63347583 -92.42556014 97.63347583 -91.8359375 94.40234375 C-89.90416397 91.32581554 -87.40682141 88.94874305 -84.8359375 86.40234375 C-83.55587348 84.91021324 -82.28462718 83.4104611 -81.0234375 81.90234375 C-79.31640625 79.87109375 -79.31640625 79.87109375 -77.8359375 78.40234375 C-77.1759375 78.40234375 -76.5159375 78.40234375 -75.8359375 78.40234375 C-75.59617187 77.83644531 -75.35640625 77.27054687 -75.109375 76.6875 C-73.57233607 73.92931664 -71.71250632 72.05027095 -69.4609375 69.83984375 C-68.69007813 69.07542969 -67.91921875 68.31101562 -67.125 67.5234375 C-63.79366209 64.4365493 -61.65869885 62.61512686 -57.2109375 61.46484375 C-53.75850329 60.762396 -53.75850329 60.762396 -52.3984375 58.27734375 C-52.12 57.34921875 -52.12 57.34921875 -51.8359375 56.40234375 C-52.4340625 55.59796875 -53.0321875 54.79359375 -53.6484375 53.96484375 C-60.02993956 44.08600605 -60.60544357 31.68110428 -58.1796875 20.33203125 C-54.61944717 10.54137036 -47.89899914 3.3227188 -38.8359375 -1.59765625 C-38.07539062 -2.01144531 -37.31484375 -2.42523438 -36.53125 -2.8515625 C-24.66762573 -8.43330048 -11.0131066 -6.52838793 0 0 Z " fill="#2A2A27" transform="translate(694.8359375,334.59765625)"/>
<path d="M0 0 C1.2686045 0.75583739 2.53773947 1.51078508 3.80737305 2.26489258 C7.01786508 4.17521089 10.22112714 6.09725484 13.42156982 8.02435303 C16.22813346 9.71379997 19.0381329 11.39751224 21.84765625 13.08203125 C24.95102685 14.94405361 28.0536947 16.80719902 31.15429688 18.67382812 C38.07261156 22.83538597 45.02266538 26.93823793 52 31 C53.44524048 31.84268433 53.44524048 31.84268433 54.91967773 32.70239258 C59.90370135 35.60555263 64.89390163 38.49748561 69.89404297 41.37277222 C72.50285158 42.87504154 75.10771066 44.38407893 77.71203613 45.894104 C78.9647525 46.61830692 80.21917164 47.33957425 81.47546387 48.05755615 C95.29432299 55.95771893 106.62131953 63.7201903 112.25 79.125 C113.24836618 83.11162658 113.3539376 86.83517724 113.3125 90.9375 C113.30347656 92.09894531 113.29445313 93.26039063 113.28515625 94.45703125 C113.26775391 95.77767578 113.26775391 95.77767578 113.25 97.125 C112.59 97.125 111.93 97.125 111.25 97.125 C110.92 98.115 110.59 99.105 110.25 100.125 C108.47265625 101.94921875 108.47265625 101.94921875 106.3125 103.8125 C105.24708984 104.74642578 105.24708984 104.74642578 104.16015625 105.69921875 C102.25 107.125 102.25 107.125 100.25 107.125 C100.25 144.415 100.25 181.705 100.25 220.125 C99.92 220.125 99.59 220.125 99.25 220.125 C99.24945523 219.42723481 99.24891047 218.72946962 99.24834919 218.01056004 C99.2333617 201.00808132 99.19083553 184.00589291 99.11790943 167.00356388 C99.08330183 158.78123591 99.05790948 150.55907486 99.05444336 142.33666992 C99.05139755 135.1674129 99.03082463 127.99845346 98.98947543 120.82931131 C98.96819923 117.03555739 98.95551682 113.24222597 98.96384621 109.44841194 C98.97142092 105.87192699 98.95542723 102.29629565 98.92193985 98.71996689 C98.90986318 96.79300379 98.92225125 94.86593507 98.93556213 92.9389801 C98.82667369 84.64021761 97.4039414 78.52866729 91.60534382 72.38147068 C87.06002121 68.12817442 81.55659441 65.14268981 76.1875 62.0625 C74.20433228 60.90771487 72.22126191 59.75276256 70.23828125 58.59765625 C69.23490723 58.0164502 68.2315332 57.43524414 67.19775391 56.83642578 C62.74191997 54.24942927 58.30859435 51.62486432 53.875 49 C52.99158936 48.47833252 52.10817871 47.95666504 51.19799805 47.41918945 C45.68019883 44.16009343 40.16985558 40.8886936 34.6640625 37.609375 C-1.59532271 11.44372722 -1.59532271 11.44372722 -41.75 2.125 C-47.27947984 4.11718139 -52.21685872 7.39193351 -57.16845703 10.5078125 C-59.90204249 12.22024583 -62.6625956 13.88008653 -65.43359375 15.53125 C-69.63054842 18.03230762 -73.81822976 20.54785662 -78 23.07421875 C-84.98366749 27.28056999 -92.02029049 31.39285038 -99.0625 35.5 C-110.13076496 41.95744639 -121.11354194 48.5443464 -132.03833008 55.24169922 C-136.50320419 57.97238351 -140.96162405 60.69876986 -145.52905273 63.25512695 C-146.15916763 63.60856674 -146.78928253 63.96200653 -147.43849182 64.32615662 C-149.20139547 65.3095675 -150.96944407 66.28373887 -152.73779297 67.25732422 C-159.14595702 71.23061446 -163.68856987 76.81500329 -165.75 84.125 C-166.20330517 88.5808252 -166.18748769 93.0198948 -166.18237305 97.49584961 C-166.19139993 98.84662772 -166.20172942 100.19739765 -166.21325684 101.54815674 C-166.2407445 105.19847414 -166.25010006 108.84863577 -166.25611091 112.49904323 C-166.26551613 116.32010827 -166.2917212 120.14105794 -166.31611633 123.96205139 C-166.35972608 131.19019423 -166.3883069 138.4183146 -166.41143972 145.64654881 C-166.43852108 153.87878555 -166.48243073 162.1109059 -166.52772844 170.34305942 C-166.62049554 187.27031295 -166.69221251 204.19759165 -166.75 221.125 C-167.08 221.125 -167.41 221.125 -167.75 221.125 C-167.75 189.775 -167.75 158.425 -167.75 126.125 C-171.4246591 124.20346424 -171.4246591 124.20346424 -174.08081055 123.24121094 C-177.01212828 121.8403668 -178.69285647 120.66700802 -180.75 118.125 C-181.84905877 112.98566286 -181.83610198 108.0760603 -181.64868164 102.84082031 C-181.56318432 100.39457963 -181.54619493 97.95540582 -181.54101562 95.5078125 C-181.4412424 87.03557879 -180.92120502 79.70686523 -176.75 72.125 C-176.26917969 71.22265625 -175.78835938 70.3203125 -175.29296875 69.390625 C-174.84566406 68.72546875 -174.39835938 68.0603125 -173.9375 67.375 C-173.49792969 66.69953125 -173.05835938 66.0240625 -172.60546875 65.328125 C-167.71257819 59.51846126 -161.63020471 55.60313435 -155.125 51.8125 C-154.27236572 51.3081543 -153.41973145 50.80380859 -152.54125977 50.28417969 C-149.6153348 48.5566925 -146.68304723 46.84036447 -143.75 45.125 C-142.06589226 44.13677595 -140.38178918 43.14854391 -138.69787598 42.1599884 C-134.44916955 39.66591446 -130.1992778 37.17387932 -125.94677734 34.6862793 C-116.59608463 29.21569917 -107.27219198 23.70143004 -97.95751953 18.16967773 C-91.94625086 14.60277953 -85.92693751 11.05053642 -79.89453125 7.51953125 C-79.23858978 7.13554169 -78.58264832 6.75155212 -77.90682983 6.35592651 C-74.73591328 4.50027902 -71.56394629 2.64645386 -68.390625 0.79492188 C-63.01474931 -2.34596846 -57.65569665 -5.49381074 -52.42871094 -8.87890625 C-34.37356088 -19.59225882 -15.90595921 -9.60636185 0 0 Z " fill="#504F4D" transform="translate(737.75,205.875)"/>
<path d="M0 0 C0 21.12 0 42.24 0 64 C-14.355 64.495 -14.355 64.495 -29 65 C-47.27625462 67.48415111 -62.92373058 70.72827132 -78.9765625 79.83984375 C-82 81 -82 81 -84.40234375 80.40234375 C-85.25957031 79.93957031 -86.11679687 79.47679687 -87 79 C-88.23336148 78.45997562 -89.47220991 77.93239444 -90.71484375 77.4140625 C-91.39337402 77.12499023 -92.0719043 76.83591797 -92.77099609 76.53808594 C-107.24382956 70.43842432 -121.49612837 67.18178151 -137 65 C-136.67 62.36 -136.34 59.72 -136 57 C-132.73759777 58.06028073 -129.66986285 59.15606484 -126.5625 60.625 C-116.02591059 64.54605904 -104.05292919 62.20941899 -94 58 C-81.14261586 51.90491467 -74.82847177 42.04314452 -70 29 C-69.6186926 26.67402489 -69.27539746 24.34087842 -69 22 C-63.67192698 19.89681328 -58.66531181 19.45934961 -53 19 C-53 22.63 -53 26.26 -53 30 C-45.59377986 27.85789325 -39.48163187 24.66897293 -32.9375 20.625 C-31.97650391 20.06039063 -31.01550781 19.49578125 -30.02539062 18.9140625 C-29.11853516 18.3571875 -28.21167969 17.8003125 -27.27734375 17.2265625 C-26.45484131 16.72721191 -25.63233887 16.22786133 -24.78491211 15.71337891 C-22.71418304 14.09701877 -22.71418304 14.09701877 -22.73266602 11.29833984 C-22.82088623 10.5398877 -22.90910645 9.78143555 -23 9 C-3.59836066 0 -3.59836066 0 0 0 Z " fill="#262625" transform="translate(787,349)"/>
<path d="M0 0 C2.97 0 5.94 0 9 0 C11.47463283 2.47463283 11.2523921 3.17883979 11.26069641 6.58616638 C11.26778122 7.55220795 11.27486603 8.51824951 11.28216553 9.51356506 C11.27968811 10.57699631 11.27721069 11.64042755 11.2746582 12.73608398 C11.27976913 13.85321777 11.28488007 14.97035156 11.29014587 16.12133789 C11.30409386 19.82964371 11.30308118 23.53776476 11.30078125 27.24609375 C11.3046653 29.81437754 11.30899936 32.38266069 11.31376648 34.95094299 C11.32123991 40.34044749 11.32106684 45.72987985 11.31567383 51.11938477 C11.30963316 57.35195938 11.32194526 63.5843083 11.3432439 69.8168444 C11.36296838 75.8086948 11.3660355 81.80042677 11.36250877 87.79231453 C11.36302353 90.34368482 11.36828991 92.8950586 11.37832069 95.44640923 C11.39060829 99.00929197 11.38393928 102.57164766 11.37231445 106.13452148 C11.37995819 107.1959285 11.38760193 108.25733551 11.39547729 109.35090637 C11.38846298 110.31976776 11.38144867 111.28862915 11.3742218 112.28684998 C11.37438954 113.1295365 11.37455729 113.97222303 11.37473011 114.84044552 C10.91194755 117.50744271 10.14679519 118.39352281 8 120 C5.35517883 120.37181091 5.35517883 120.37181091 2.13012695 120.36889648 C0.92068924 120.37577988 -0.28874847 120.38266327 -1.53483582 120.38975525 C-2.84720718 120.38359695 -4.15957855 120.37743866 -5.51171875 120.37109375 C-6.88158683 120.37779455 -8.25144688 120.3863757 -9.62129211 120.39674377 C-15.42793316 120.43669208 -21.23450408 120.43807817 -27.04125977 120.43579102 C-52.98769835 120.03492129 -52.98769835 120.03492129 -77.25 128.25 C-83.23818915 131.43883244 -88.30415075 132.23320552 -95 131 C-97.59526817 129.97396375 -99.92772297 128.75556879 -102.3515625 127.375 C-111.4146951 122.66965682 -121.49066659 120.89884178 -131.58203125 120.68359375 C-132.39621017 120.66281265 -133.2103891 120.64203156 -134.04924011 120.62062073 C-136.63691179 120.55550537 -139.22468053 120.49641792 -141.8125 120.4375 C-143.57227545 120.39427858 -145.33204128 120.35066315 -147.09179688 120.30664062 C-151.39443309 120.1998632 -155.69716643 120.09848982 -160 120 C-160 119.34 -160 118.68 -160 118 C-158.35546875 116.37890625 -158.35546875 116.37890625 -156.1875 114.5625 C-153.21987099 112.08827181 -153.21987099 112.08827181 -150.5625 109.30078125 C-147.01232705 106.34526227 -141.32420222 107.66187406 -137 108 C-127.69739414 109.11752083 -118.95205826 111.46932613 -110.0625 114.375 C-109.19890869 114.65480713 -108.33531738 114.93461426 -107.44555664 115.22290039 C-103.06615818 116.71362485 -99.20917746 118.39116071 -95.24609375 120.7890625 C-92.35441428 122.45229428 -91.25974544 122.99839266 -87.84375 123.01953125 C-84.54052445 121.83527044 -81.58147712 120.36863296 -78.5 118.6875 C-71.58344131 115.048429 -64.57546836 112.91887614 -57 111 C-55.99839844 110.67644531 -54.99679687 110.35289062 -53.96484375 110.01953125 C-35.79458562 105.34717916 -19.1858327 107 0 107 C0 71.69 0 36.38 0 0 Z " fill="#2B2B28" transform="translate(793,312)"/>
<path d="M0 0 C6.51285001 6.66086933 10.6480763 13.65956258 11.0625 23.125 C10.77520927 32.52579125 7.51510915 40.2295284 0.75 46.8125 C-2.11980455 48.82726005 -5.04415555 50.402155 -8.25 51.8125 C-9.05695312 52.17859375 -9.86390625 52.5446875 -10.6953125 52.921875 C-18.12408312 55.51172164 -26.2395807 53.99639877 -33.25 50.8125 C-34.24 50.1525 -35.23 49.4925 -36.25 48.8125 C-35.92 47.8225 -35.59 46.8325 -35.25 45.8125 C-35.91 45.1525 -36.57 44.4925 -37.25 43.8125 C-36.25 42.8125 -36.25 42.8125 -34.18359375 42.71484375 C-32.94802734 42.73224609 -32.94802734 42.73224609 -31.6875 42.75 C-30.86121094 42.75902344 -30.03492188 42.76804687 -29.18359375 42.77734375 C-28.54550781 42.78894531 -27.90742187 42.80054688 -27.25 42.8125 C-27.25 41.4925 -27.25 40.1725 -27.25 38.8125 C-29.23 38.8125 -31.21 38.8125 -33.25 38.8125 C-33.25 36.5025 -33.25 34.1925 -33.25 31.8125 C-31.93 31.1525 -30.61 30.4925 -29.25 29.8125 C-29.25 31.1325 -29.25 32.4525 -29.25 33.8125 C-22.65 33.8125 -16.05 33.8125 -9.25 33.8125 C-9.25 32.1625 -9.25 30.5125 -9.25 28.8125 C-9.80985596 28.82821045 -10.36971191 28.8439209 -10.9465332 28.86010742 C-13.4850859 28.92249848 -16.02347729 28.96150218 -18.5625 29 C-19.44357422 29.02513672 -20.32464844 29.05027344 -21.23242188 29.07617188 C-22.07998047 29.08583984 -22.92753906 29.09550781 -23.80078125 29.10546875 C-24.58106689 29.1211792 -25.36135254 29.13688965 -26.1652832 29.15307617 C-28.25 28.8125 -28.25 28.8125 -31.25 25.8125 C-20.03 25.8125 -8.81 25.8125 2.75 25.8125 C2.75 24.4925 2.75 23.1725 2.75 21.8125 C-11.77 21.8125 -26.29 21.8125 -41.25 21.8125 C-41.25 23.1325 -41.25 24.4525 -41.25 25.8125 C-43.56 25.8125 -45.87 25.8125 -48.25 25.8125 C-49.13966419 16.52045183 -46.39150731 10.68725272 -41.4375 3 C-29.66264958 -8.77485042 -13.40749666 -9.0242766 0 0 Z " fill="#F1CF59" transform="translate(693.25,344.1875)"/>
<path d="M0 0 C9.22960509 5.98091738 14.80348143 14.0671396 17.70703125 24.73046875 C18.54127558 29.60758946 18.39265658 34.47487135 18.1640625 39.40234375 C17.8340625 38.74234375 17.5040625 38.08234375 17.1640625 37.40234375 C14.5240625 37.40234375 11.8840625 37.40234375 9.1640625 37.40234375 C9.06609375 36.55671875 8.968125 35.71109375 8.8671875 34.83984375 C7.65870264 25.67202757 5.75354605 18.17486851 -0.8359375 11.40234375 C-8.70007244 5.59705959 -16.0518768 3.33970404 -25.8359375 4.40234375 C-34.27594827 6.54829669 -40.10369768 9.55439171 -45.0234375 16.83984375 C-48.44397292 22.72246122 -49.22716987 28.70589986 -49.8359375 35.40234375 C-47.5259375 35.40234375 -45.2159375 35.40234375 -42.8359375 35.40234375 C-42.8359375 34.08234375 -42.8359375 32.76234375 -42.8359375 31.40234375 C-28.3159375 31.40234375 -13.7959375 31.40234375 1.1640625 31.40234375 C1.1640625 32.72234375 1.1640625 34.04234375 1.1640625 35.40234375 C-8.4059375 35.73234375 -17.9759375 36.06234375 -27.8359375 36.40234375 C-27.8359375 36.73234375 -27.8359375 37.06234375 -27.8359375 37.40234375 C-22.2259375 37.73234375 -16.6159375 38.06234375 -10.8359375 38.40234375 C-10.8359375 40.05234375 -10.8359375 41.70234375 -10.8359375 43.40234375 C-17.4359375 43.40234375 -24.0359375 43.40234375 -30.8359375 43.40234375 C-31.1659375 42.41234375 -31.4959375 41.42234375 -31.8359375 40.40234375 C-33.3209375 40.89734375 -33.3209375 40.89734375 -34.8359375 41.40234375 C-34.8359375 43.71234375 -34.8359375 46.02234375 -34.8359375 48.40234375 C-32.8559375 48.40234375 -30.8759375 48.40234375 -28.8359375 48.40234375 C-28.8359375 49.72234375 -28.8359375 51.04234375 -28.8359375 52.40234375 C-33.2909375 52.89734375 -33.2909375 52.89734375 -37.8359375 53.40234375 C-37.1759375 54.39234375 -36.5159375 55.38234375 -35.8359375 56.40234375 C-37.3209375 56.89734375 -37.3209375 56.89734375 -38.8359375 57.40234375 C-46.64595597 50.57954672 -50.08502403 43.72740394 -50.8359375 33.40234375 C-51.4134375 33.25796875 -51.9909375 33.11359375 -52.5859375 32.96484375 C-54.66927083 32.44401042 -56.75260417 31.92317708 -58.8359375 31.40234375 C-59.56259244 21.59250204 -56.03351959 13.94243214 -49.8125 6.4375 C-46.52599714 3.05357117 -42.96893928 0.64616815 -38.8359375 -1.59765625 C-38.07539062 -2.01144531 -37.31484375 -2.42523438 -36.53125 -2.8515625 C-24.66762573 -8.43330048 -11.0131066 -6.52838793 0 0 Z " fill="#5A5855" transform="translate(694.8359375,334.59765625)"/>
<path d="M0 0 C1.21816406 0.03480469 1.21816406 0.03480469 2.4609375 0.0703125 C3.68683594 0.09738281 3.68683594 0.09738281 4.9375 0.125 C5.87722656 0.15980469 5.87722656 0.15980469 6.8359375 0.1953125 C6.99823908 12.72145122 7.12256387 25.24733917 7.1986227 37.77431583 C7.23513042 43.59137719 7.28463725 49.40771836 7.36401367 55.22436523 C7.44015911 60.83948769 7.48194631 66.45391817 7.5000782 72.06951714 C7.51299683 74.21018809 7.53822482 76.35082182 7.5760479 78.49119759 C7.62698879 81.49373855 7.63385615 84.49343324 7.63061523 87.49633789 C7.65578217 88.3781926 7.6809491 89.2600473 7.70687866 90.16862488 C7.649342 95.10630058 6.97017157 97.58159782 3.41127014 101.11399841 C2.79195649 101.64136313 2.17264284 102.16872786 1.53456211 102.71207333 C-0.40822738 104.27784145 -0.40822738 104.27784145 -2.1640625 107.1953125 C-2.8240625 107.1953125 -3.4840625 107.1953125 -4.1640625 107.1953125 C-4.21032329 93.53956855 -4.24589979 79.88384312 -4.26768684 66.22803688 C-4.27814146 59.8876736 -4.29233119 53.54736376 -4.31494141 47.20703125 C-4.33661005 41.09274136 -4.34861847 34.97850301 -4.35381699 28.8641777 C-4.35752352 26.52689171 -4.36476102 24.18960867 -4.37552261 21.85234451 C-4.38995806 18.58851183 -4.39204378 15.32489442 -4.39111328 12.06103516 C-4.39830383 11.08639816 -4.40549438 10.11176117 -4.41290283 9.10758972 C-4.4101535 8.22135422 -4.40740417 7.33511871 -4.40457153 6.42202759 C-4.40641512 5.64956507 -4.40825871 4.87710255 -4.41015816 4.08123207 C-4.02733126 1.14749179 -2.89158303 0.2609732 0 0 Z " fill="#272627" transform="translate(608.1640625,311.8046875)"/>
<path d="M0 0 C-1.08551325 7.59859273 -3.45756721 12.60424785 -9 18 C-11.86933078 20.0158888 -14.79394168 21.58956092 -18 23 C-18.80695312 23.36609375 -19.61390625 23.7321875 -20.4453125 24.109375 C-27.87408312 26.69922164 -35.9895807 25.18389877 -43 22 C-43.99 21.34 -44.98 20.68 -46 20 C-45.67 19.01 -45.34 18.02 -45 17 C-45.66 16.34 -46.32 15.68 -47 15 C-46 14 -46 14 -43.93359375 13.90234375 C-42.69802734 13.91974609 -42.69802734 13.91974609 -41.4375 13.9375 C-40.61121094 13.94652344 -39.78492188 13.95554687 -38.93359375 13.96484375 C-38.29550781 13.97644531 -37.65742187 13.98804688 -37 14 C-37 12.68 -37 11.36 -37 10 C-38.98 10 -40.96 10 -43 10 C-43 7.69 -43 5.38 -43 3 C-41.68 2.34 -40.36 1.68 -39 1 C-39 2.32 -39 3.64 -39 5 C-32.4 5 -25.8 5 -19 5 C-19.33 5.99 -19.66 6.98 -20 8 C-17.525 8.495 -17.525 8.495 -15 9 C-15 6.69 -15 4.38 -15 2 C-10.13948404 -0.59227518 -5.34728867 -0.18689553 0 0 Z " fill="#EDBD25" transform="translate(703,373)"/>
<path d="M0 0 C0.87221191 0.00354492 1.74442383 0.00708984 2.64306641 0.01074219 C9.96461794 0.19802191 15.80696868 1.81892424 22.1875 5.5 C23.26 6.098125 24.3325 6.69625 25.4375 7.3125 C34.31078067 14.37079144 42.33497109 23.82906787 44.1875 35.5 C44.25493348 37.58234592 44.27264472 39.66668557 44.25 41.75 C44.24097656 42.82765625 44.23195313 43.9053125 44.22265625 45.015625 C44.21105469 45.83546875 44.19945312 46.6553125 44.1875 47.5 C42.5375 47.83 40.8875 48.16 39.1875 48.5 C39.07535156 47.08460938 39.07535156 47.08460938 38.9609375 45.640625 C38.02443912 36.49599376 36.10373462 29.44729657 31.1875 21.5 C30.80722656 20.88511719 30.42695312 20.27023437 30.03515625 19.63671875 C26.5738081 14.86966632 21.26107143 12.2389036 16.1875 9.5 C15.54941406 9.13390625 14.91132812 8.7678125 14.25390625 8.390625 C5.7555257 4.72780692 -5.67411785 5.26221952 -14.125 8.5625 C-25.03049511 13.76112483 -31.33284509 20.32281097 -36.0625 31.4375 C-37.20074891 36.08534973 -38.02332107 40.78171743 -38.8125 45.5 C-39.1425 44.84 -39.4725 44.18 -39.8125 43.5 C-40.8025 45.975 -40.8025 45.975 -41.8125 48.5 C-42.1425 48.5 -42.4725 48.5 -42.8125 48.5 C-43.55860062 35.43494919 -42.45094223 25.59397443 -33.625 15.1875 C-23.91986888 5.17656873 -14.00765758 -0.10321718 0 0 Z " fill="#F1CD54" transform="translate(673.8125,323.5)"/>
<path d="M0 0 C2.64 0 5.28 0 8 0 C8.33 15.51 8.66 31.02 9 47 C9.66 47 10.32 47 11 47 C11.66 46.01 12.32 45.02 13 44 C13 59.51 13 75.02 13 91 C13.66 91 14.32 91 15 91 C15.26167969 90.40703125 15.52335938 89.8140625 15.79296875 89.203125 C17.06690976 86.87787346 18.32800206 85.492486 20.3125 83.75 C20.88613281 83.22921875 21.45976563 82.7084375 22.05078125 82.171875 C24.50052636 80.69908235 26.19085932 80.78725957 29 81 C28.65066406 80.31035156 28.30132813 79.62070312 27.94140625 78.91015625 C24.29428832 71.37828947 21.57425867 64.35533126 24 56 C24.66 56 25.32 56 26 56 C26.66 55.34 27.32 54.68 28 54 C28.01417969 54.64324219 28.02835938 55.28648437 28.04296875 55.94921875 C28.54157183 65.39572579 31.67084504 73.64372414 36 82 C33.70117183 84.75859381 32.43812015 85.90361357 28.875 86.6875 C21.33377153 88.47915255 15.56586413 96.16691511 11 102 C9.35570171 103.68873879 7.68615782 105.35305515 6 107 C4.72784219 108.26950748 3.4570529 109.54038752 2.1875 110.8125 C1.125 111.875 0.0625 112.9375 -1 114 C-1.66 113.67 -2.32 113.34 -3 113 C-2.44975568 109.15688732 -0.80046737 107.53293315 2 104.9375 C5.01035338 102.13679623 6.84256961 100.41047192 7.12304783 96.11597157 C7.12212604 95.40342559 7.12120424 94.69087961 7.12025452 93.95674133 C7.12162918 93.1364444 7.12300385 92.31614746 7.12442017 91.47099304 C7.12082489 90.57475723 7.11722961 89.67852142 7.11352539 88.75512695 C7.11367142 87.80859253 7.11381744 86.86205811 7.1139679 85.88684082 C7.11327047 82.75396443 7.10548599 79.62114727 7.09765625 76.48828125 C7.09579147 74.3178053 7.09436785 72.14732894 7.09336853 69.97685242 C7.08954811 64.26072022 7.07972184 58.54461338 7.06866455 52.82849121 C7.05844024 46.99699242 7.05386872 41.16548954 7.04882812 35.33398438 C7.03809918 23.88931177 7.02102842 12.44465799 7 1 C4.69 1 2.38 1 0 1 C0 0.67 0 0.34 0 0 Z " fill="#DFB633" transform="translate(608,311)"/>
<path d="M0 0 C3.92039607 0.45272909 6.62453766 1.75204438 9.94140625 3.8359375 C10.85470703 4.40570313 11.76800781 4.97546875 12.70898438 5.5625 C13.65064453 6.160625 14.59230469 6.75875 15.5625 7.375 C16.50802734 7.96539062 17.45355469 8.55578125 18.42773438 9.1640625 C22.39496803 11.65374694 26.28413102 14.144103 30 17 C29.83691406 18.77050781 29.83691406 18.77050781 29 21 C26.67089844 22.83105469 26.67089844 22.83105469 23.609375 24.671875 C22.50722656 25.33574219 21.40507813 25.99960937 20.26953125 26.68359375 C19.69154785 27.02245605 19.11356445 27.36131836 18.51806641 27.71044922 C16.76011682 28.74405172 15.0185672 29.80179991 13.27734375 30.86328125 C3.88555056 36.45025019 3.88555056 36.45025019 -1 36 C-1.02465098 31.03377651 -1.04283649 26.06758834 -1.05493164 21.10131836 C-1.0599719 19.41055684 -1.06680405 17.71979971 -1.07543945 16.02905273 C-1.08751857 13.60399293 -1.09323123 11.17899056 -1.09765625 8.75390625 C-1.10281754 7.99348526 -1.10797882 7.23306427 -1.11329651 6.44960022 C-1.11349238 4.6326743 -1.06197277 2.81586873 -1 1 C-0.67 0.67 -0.34 0.34 0 0 Z " fill="#F4D15F" transform="translate(735,343)"/>
<path d="M0 0 C14.52 0 29.04 0 44 0 C44 1.32 44 2.64 44 4 C34.43 4.33 24.86 4.66 15 5 C15 5.33 15 5.66 15 6 C20.61 6.33 26.22 6.66 32 7 C32 8.65 32 10.3 32 12 C25.4 12 18.8 12 12 12 C11.67 11.01 11.34 10.02 11 9 C10.01 9.33 9.02 9.66 8 10 C8 12.31 8 14.62 8 17 C9.98 17 11.96 17 14 17 C14 18.32 14 19.64 14 21 C11.03 21.33 8.06 21.66 5 22 C5.66 22.99 6.32 23.98 7 25 C6.01 25.33 5.02 25.66 4 26 C-2.24557441 20.54389426 -6.65317326 14.94228098 -7.25 6.4375 C-7.1675 5.633125 -7.085 4.82875 -7 4 C-4.69 4 -2.38 4 0 4 C0 2.68 0 1.36 0 0 Z " fill="#EBB926" transform="translate(652,366)"/>
<path d="M0 0 C6.53754054 3.92252433 9.60659928 8.45316181 12.375 15.5 C13.12245622 19.68575483 13.3914281 23.75801172 13 28 C11.04848373 29.95151627 7.54831255 29.70968749 4.9375 30.0625 C3.64714844 30.23910156 2.35679687 30.41570312 1.02734375 30.59765625 C-0.47119141 30.79681641 -0.47119141 30.79681641 -2 31 C-2.33 33.31 -2.66 35.62 -3 38 C-4.98 38 -6.96 38 -9 38 C-8.34 35.03 -7.68 32.06 -7 29 C-8.33675781 29.03480469 -9.67351563 29.06960938 -11.05078125 29.10546875 C-12.80467495 29.13360608 -14.55858222 29.1609063 -16.3125 29.1875 C-17.19357422 29.21263672 -18.07464844 29.23777344 -18.98242188 29.26367188 C-20.25375977 29.27817383 -20.25375977 29.27817383 -21.55078125 29.29296875 C-22.33106689 29.3086792 -23.11135254 29.32438965 -23.9152832 29.34057617 C-26 29 -26 29 -29 26 C-17.78 26 -6.56 26 5 26 C5 24.68 5 23.36 5 22 C4.10168457 22.01571045 3.20336914 22.0314209 2.27783203 22.04760742 C-1.05067692 22.09869255 -4.37877027 22.13632785 -7.70751953 22.16479492 C-9.14899258 22.17989483 -10.59041959 22.20037658 -12.03173828 22.22631836 C-14.10200343 22.2626513 -16.17166207 22.27971329 -18.2421875 22.29296875 C-19.4885498 22.3086792 -20.73491211 22.32438965 -22.01904297 22.34057617 C-23.00275879 22.22818604 -23.98647461 22.1157959 -25 22 C-25.66 21.01 -26.32 20.02 -27 19 C-26.09290283 18.96241577 -26.09290283 18.96241577 -25.16748047 18.92407227 C-22.4031438 18.80736994 -19.63908634 18.68498266 -16.875 18.5625 C-15.44800781 18.50352539 -15.44800781 18.50352539 -13.9921875 18.44335938 C-13.0640625 18.40146484 -12.1359375 18.35957031 -11.1796875 18.31640625 C-10.33132324 18.27974854 -9.48295898 18.24309082 -8.60888672 18.20532227 C-5.72020056 17.97797947 -2.8581932 17.47636553 0 17 C0 11.39 0 5.78 0 0 Z " fill="#EFCC59" transform="translate(691,344)"/>
<path d="M0 0 C2.97 0 5.94 0 9 0 C9 15.18 9 30.36 9 46 C5.37 44.35 1.74 42.7 -2 41 C-2.0493521 35.48243524 -2.08569662 29.96499829 -2.10986328 24.44726562 C-2.11993534 22.56931318 -2.13359362 20.69137647 -2.15087891 18.81347656 C-2.17507453 16.1177991 -2.18647083 13.42232854 -2.1953125 10.7265625 C-2.20563507 9.88380768 -2.21595764 9.04105286 -2.22659302 8.17276001 C-2.22699144 6.11378753 -2.12257588 4.05532065 -2 2 C-1.34 1.34 -0.68 0.68 0 0 Z " fill="#4E4E50" transform="translate(606,312)"/>
<path d="M0 0 C6 1 6 1 9 3 C9.61055562 5.71653008 10.06671766 8.31333448 10.4375 11.0625 C11.44300935 17.65678669 12.95300716 23.01108303 16 29 C16 29.66 16 30.32 16 31 C15.154375 31.20625 14.30875 31.4125 13.4375 31.625 C8.84690165 33.46123934 4.27105726 36.45788548 2 41 C1.34 41 0.68 41 0 41 C0 27.47 0 13.94 0 0 Z " fill="#2B2A27" transform="translate(621,361)"/>
<path d="M0 0 C2.97 0 5.94 0 9 0 C11 2 11 2 11.22705078 4.61376953 C11.21134033 6.2319458 11.21134033 6.2319458 11.1953125 7.8828125 C11.18564453 9.63271484 11.18564453 9.63271484 11.17578125 11.41796875 C11.15902344 12.64128906 11.14226563 13.86460937 11.125 15.125 C11.11597656 16.35605469 11.10695313 17.58710938 11.09765625 18.85546875 C11.07402548 21.90383815 11.04108054 24.95182382 11 28 C9.54462432 28.83848804 8.08559627 29.67063934 6.625 30.5 C5.40683594 31.19609375 5.40683594 31.19609375 4.1640625 31.90625 C2 33 2 33 0 33 C0 22.11 0 11.22 0 0 Z " fill="#5D5D5E" transform="translate(793,312)"/>
<path d="M0 0 C0.495 0.99 0.495 0.99 1 2 C3.64 2 6.28 2 9 2 C9.66 3.98 10.32 5.96 11 8 C10.38253906 7.98839844 9.76507812 7.97679687 9.12890625 7.96484375 C2.07662329 7.88970527 -4.6626439 8.4821344 -11.625 9.5625 C-16.30942991 10.16974091 -20.48719032 10.50426989 -25 9 C-27.22497621 8.62039634 -29.45486192 8.26907991 -31.6875 7.9375 C-32.86699219 7.76089844 -34.04648437 7.58429687 -35.26171875 7.40234375 C-36.16535156 7.26957031 -37.06898438 7.13679687 -38 7 C-36.77734375 4.515625 -36.77734375 4.515625 -35 2 C-32.87890625 1.546875 -32.87890625 1.546875 -30.5625 1.75 C-27.33287407 2.01517397 -27.33287407 2.01517397 -24.16845703 1.50878906 C-21.71895184 0.93405715 -19.5653417 0.90327859 -17.05078125 0.9375 C-16.12072266 0.94523438 -15.19066406 0.95296875 -14.23242188 0.9609375 C-13.26884766 0.97382812 -12.30527344 0.98671875 -11.3125 1 C-9.39198188 1.02538689 -7.47140019 1.04646143 -5.55078125 1.0625 C-4.70169189 1.07410156 -3.85260254 1.08570313 -2.9777832 1.09765625 C-0.99795249 1.22174393 -0.99795249 1.22174393 0 0 Z " fill="#DDDEDE" transform="translate(719,565)"/>
<path d="M0 0 C0.33 0 0.66 0 1 0 C1 7.59 1 15.18 1 23 C3.805 22.236875 6.61 21.47375 9.5 20.6875 C10.8003418 20.33691528 10.8003418 20.33691528 12.12695312 19.97924805 C15.9652803 18.92353408 19.65529961 17.77245503 23.34375 16.26953125 C26.95614978 15.01522577 27.62742831 14.8970352 31 16 C30.83691406 17.77050781 30.83691406 17.77050781 30 20 C27.67089844 21.83105469 27.67089844 21.83105469 24.609375 23.671875 C23.50722656 24.33574219 22.40507813 24.99960937 21.26953125 25.68359375 C20.69154785 26.02245605 20.11356445 26.36131836 19.51806641 26.71044922 C17.76011682 27.74405172 16.0185672 28.80179991 14.27734375 29.86328125 C5.64242906 35 5.64242906 35 0 35 C0 23.45 0 11.9 0 0 Z " fill="#E9BC29" transform="translate(734,344)"/>
<path d="M0 0 C0.74507812 0.04382813 1.49015625 0.08765625 2.2578125 0.1328125 C3.02609375 0.184375 3.794375 0.2359375 4.5859375 0.2890625 C5.36195313 0.33289063 6.13796875 0.37671875 6.9375 0.421875 C12.69642857 0.78180804 12.69642857 0.78180804 14.9609375 1.9140625 C15.9509375 2.2440625 16.9409375 2.5740625 17.9609375 2.9140625 C18.6209375 3.5740625 19.2809375 4.2340625 19.9609375 4.9140625 C20.2909375 3.9240625 20.6209375 2.9340625 20.9609375 1.9140625 C22.9609375 3.9140625 22.9609375 3.9140625 22.9609375 6.9140625 C20.3209375 6.9140625 17.6809375 6.9140625 14.9609375 6.9140625 C14.9609375 7.5740625 14.9609375 8.2340625 14.9609375 8.9140625 C12.52336337 8.94104672 10.08608835 8.96089349 7.6484375 8.9765625 C6.95814453 8.98494141 6.26785156 8.99332031 5.55664062 9.00195312 C2.412635 9.01714156 -0.03326269 8.91599577 -3.0390625 7.9140625 C-3.3690625 8.5740625 -3.6990625 9.2340625 -4.0390625 9.9140625 C-8.3290625 9.5840625 -12.6190625 9.2540625 -17.0390625 8.9140625 C-17.3690625 7.9240625 -17.6990625 6.9340625 -18.0390625 5.9140625 C-17.0490625 5.5840625 -16.0590625 5.2540625 -15.0390625 4.9140625 C-16.0290625 4.2540625 -17.0190625 3.5940625 -18.0390625 2.9140625 C-14.7265625 1.7890625 -14.7265625 1.7890625 -11.0390625 0.9140625 C-10.0490625 1.5740625 -9.0590625 2.2340625 -8.0390625 2.9140625 C-8.0390625 2.2540625 -8.0390625 1.5940625 -8.0390625 0.9140625 C-5.23874258 0.1042466 -2.90577317 -0.174581 0 0 Z " fill="#E1E2E2" transform="translate(702.0390625,577.0859375)"/>
<path d="M0 0 C0.33 0 0.66 0 1 0 C1.01417969 0.64324219 1.02835938 1.28648437 1.04296875 1.94921875 C1.54157183 11.39572579 4.67084504 19.64372414 9 28 C5.7224527 31.93305676 2.8352087 32.64274844 -2 34 C-2.86625 34.721875 -3.7325 35.44375 -4.625 36.1875 C-7 38 -7 38 -9.8125 37.75 C-10.534375 37.5025 -11.25625 37.255 -12 37 C-10.65097383 33.9430934 -9.19653204 31.95305252 -6.6875 29.75 C-6.11386719 29.22921875 -5.54023437 28.7084375 -4.94921875 28.171875 C-2.49947364 26.69908235 -0.80914068 26.78725957 2 27 C1.65066406 26.31035156 1.30132813 25.62070312 0.94140625 24.91015625 C-2.70571168 17.37828947 -5.42574133 10.35533126 -3 2 C-2.34 2 -1.68 2 -1 2 C-0.67 1.34 -0.34 0.68 0 0 Z " fill="#EDBD2B" transform="translate(635,365)"/>
<path d="M0 0 C14.52 0 29.04 0 44 0 C44 1.32 44 2.64 44 4 C29.48 4 14.96 4 0 4 C0 2.68 0 1.36 0 0 Z " fill="#6C695D" transform="translate(652,366)"/>
<path d="M0 0 C11.22 0 22.44 0 34 0 C34 0.66 34 1.32 34 2 C36.31 2 38.62 2 41 2 C41 2.33 41 2.66 41 3 C36.38 3.66 31.76 4.32 27 5 C26.67 7.31 26.34 9.62 26 12 C24.02 12 22.04 12 20 12 C20.66 9.03 21.32 6.06 22 3 C20.66324219 3.03480469 19.32648437 3.06960938 17.94921875 3.10546875 C16.19532505 3.13360608 14.44141778 3.1609063 12.6875 3.1875 C11.80642578 3.21263672 10.92535156 3.23777344 10.01757812 3.26367188 C8.74624023 3.27817383 8.74624023 3.27817383 7.44921875 3.29296875 C6.66893311 3.3086792 5.88864746 3.32438965 5.0847168 3.34057617 C3 3 3 3 0 0 Z " fill="#F5CC3F" transform="translate(662,370)"/>
<path d="M0 0 C2.70867807 -0.29211046 5.18522139 -0.39605046 7.89453125 -0.36328125 C9.07108528 -0.36402901 9.07108528 -0.36402901 10.27140808 -0.36479187 C11.93332446 -0.36244909 13.59524423 -0.35270854 15.25708008 -0.33618164 C17.79215551 -0.31268854 20.32617224 -0.31560649 22.86132812 -0.32226562 C24.47656874 -0.31668536 26.09180493 -0.3095733 27.70703125 -0.30078125 C28.46240677 -0.30169266 29.21778229 -0.30260406 29.99604797 -0.30354309 C34.09676763 -0.24879124 37.30876685 0.17234619 41 2 C38.39431244 3.30284378 36.13974866 3.00890533 33.28125 2.97265625 C28.27123396 3.03270781 23.31839397 3.79542163 18.375 4.5625 C13.69057009 5.16974091 9.51280968 5.50426989 5 4 C2.66993089 3.64456573 0.33672984 3.3086247 -2 3 C-1.34 2.01 -0.68 1.02 0 0 Z " fill="#CFCFCF" transform="translate(689,570)"/>
<path d="M0 0 C0.74507812 0.04382813 1.49015625 0.08765625 2.2578125 0.1328125 C3.02609375 0.184375 3.794375 0.2359375 4.5859375 0.2890625 C5.36195313 0.33289063 6.13796875 0.37671875 6.9375 0.421875 C12.69642857 0.78180804 12.69642857 0.78180804 14.9609375 1.9140625 C15.9509375 2.2440625 16.9409375 2.5740625 17.9609375 2.9140625 C17.6309375 3.5740625 17.3009375 4.2340625 16.9609375 4.9140625 C12.45859377 4.96350955 7.9564082 4.99980411 3.45385742 5.02392578 C1.92225389 5.03398185 0.39066955 5.0476285 -1.14086914 5.06494141 C-3.34265886 5.08920748 -5.54419469 5.10054938 -7.74609375 5.109375 C-8.43057083 5.11969757 -9.11504791 5.13002014 -9.82026672 5.14065552 C-13.46967911 5.14151632 -14.91054752 4.99973916 -18.0390625 2.9140625 C-14.7265625 1.7890625 -14.7265625 1.7890625 -11.0390625 0.9140625 C-10.0490625 1.5740625 -9.0590625 2.2340625 -8.0390625 2.9140625 C-8.0390625 2.2540625 -8.0390625 1.5940625 -8.0390625 0.9140625 C-5.23874258 0.1042466 -2.90577317 -0.174581 0 0 Z " fill="#CCCECE" transform="translate(702.0390625,577.0859375)"/>
<path d="M0 0 C3.2706138 1.06294949 6.40934937 2.1795392 9.5625 3.5625 C15.14609454 5.71757158 21.08017093 5.73830024 27 6 C27 6.33 27 6.66 27 7 C16.96167789 9.64166371 9.27953016 9.87041075 -1 8 C-0.67 5.36 -0.34 2.72 0 0 Z " fill="#2F2D2A" transform="translate(651,406)"/>
<path d="M0 0 C6.6 0 13.2 0 20 0 C20 1.65 20 3.3 20 5 C13.4 5 6.8 5 0 5 C0 3.35 0 1.7 0 0 Z " fill="#736E5F" transform="translate(664,358)"/>
<path d="M0 0 C6.27 0 12.54 0 19 0 C19 1.32 19 2.64 19 4 C12.73 4 6.46 4 0 4 C0 2.68 0 1.36 0 0 Z " fill="#353330" transform="translate(665,374)"/>
<path d="M0 0 C-3.54296678 2.36197785 -4.83860375 2.08002685 -9 2 C-10.7015625 2.2475 -10.7015625 2.2475 -12.4375 2.5 C-17.18815525 3.16675863 -21.41567829 3.52810724 -26 2 C-28.33006911 1.64456573 -30.66327016 1.3086247 -33 1 C-33 0.67 -33 0.34 -33 0 C-22.05844518 -1.70143795 -10.99445016 -0.64159753 0 0 Z " fill="#C1C2C3" transform="translate(720,572)"/>
<path d="M0 0 C1.32 0.66 2.64 1.32 4 2 C4 5 4 5 2.42578125 6.640625 C-3.33493144 11.02771119 -3.33493144 11.02771119 -7 10.875 C-7.99 10.441875 -7.99 10.441875 -9 10 C-7.61811547 6.78956118 -6.07578097 4.95063635 -3.375 2.75 C-2.74335937 2.22921875 -2.11171875 1.7084375 -1.4609375 1.171875 C-0.73777344 0.59179688 -0.73777344 0.59179688 0 0 Z " fill="#E3B422" transform="translate(632,392)"/>
<path d="M0 0 C2.97 0 5.94 0 9 0 C9 3.63 9 7.26 9 11 C8.01 11 7.02 11 6 11 C6 8.69 6 6.38 6 4 C4.02 4 2.04 4 0 4 C0 2.68 0 1.36 0 0 Z " fill="#6B6756" transform="translate(682,350)"/>
<path d="M0 0 C2 2 2 2 2 5 C-24.63499212 5.2411619 -24.63499212 5.2411619 -32 4 C-32.33 3.34 -32.66 2.68 -33 2 C-28.7641643 1.97530679 -24.52836658 1.95714329 -20.29248047 1.94506836 C-18.8510668 1.94003526 -17.40965824 1.93320827 -15.96826172 1.92456055 C-13.89809915 1.91245017 -11.82800399 1.90676153 -9.7578125 1.90234375 C-8.5114502 1.89710693 -7.26508789 1.89187012 -5.98095703 1.88647461 C-3 2 -3 2 -1 3 C-0.67 2.01 -0.34 1.02 0 0 Z " fill="#D6D8D8" transform="translate(723,579)"/>
<path d="M0 0 C6.6 0 13.2 0 20 0 C20 0.99 20 1.98 20 3 C17.04112541 3.08069658 14.0844341 3.14034665 11.125 3.1875 C10.28324219 3.21263672 9.44148437 3.23777344 8.57421875 3.26367188 C7.76855469 3.27333984 6.96289062 3.28300781 6.1328125 3.29296875 C5.38918457 3.3086792 4.64555664 3.32438965 3.87939453 3.34057617 C2.94909424 3.17199097 2.94909424 3.17199097 2 3 C1.34 2.01 0.68 1.02 0 0 Z " fill="#FBD75A" transform="translate(664,363)"/>
<path d="M0 0 C0.99 0 1.98 0 3 0 C3 3.63 3 7.26 3 11 C0.03 11 -2.94 11 -6 11 C-6 10.01 -6 9.02 -6 8 C-4.02 8 -2.04 8 0 8 C0 5.36 0 2.72 0 0 Z " fill="#403C2B" transform="translate(688,375)"/>
<path d="M0 0 C0.99 0 1.98 0 3 0 C3 2.64 3 5.28 3 8 C4.98 8 6.96 8 9 8 C9 8.99 9 9.98 9 11 C6.03 11 3.06 11 0 11 C0 7.37 0 3.74 0 0 Z " fill="#2D2E2D" transform="translate(657,375)"/>
<path d="M0 0 C1.98 0 3.96 0 6 0 C6 0.33 6 0.66 6 1 C11.61 1.33 17.22 1.66 23 2 C23 2.33 23 2.66 23 3 C16.73 3 10.46 3 4 3 C3.67 4.32 3.34 5.64 3 7 C2.67 6.01 2.34 5.02 2 4 C1.01 4.33 0.02 4.66 -1 5 C-0.67 3.35 -0.34 1.7 0 0 Z " fill="#CBA638" transform="translate(661,371)"/>
<path d="M0 0 C0.75410156 0.04833984 1.50820313 0.09667969 2.28515625 0.14648438 C3.45111328 0.2305957 3.45111328 0.2305957 4.640625 0.31640625 C5.82978516 0.3947168 5.82978516 0.3947168 7.04296875 0.47460938 C8.99256497 0.60379949 10.94165386 0.7406059 12.890625 0.87890625 C12.560625 1.53890625 12.230625 2.19890625 11.890625 2.87890625 C5.290625 2.87890625 -1.309375 2.87890625 -8.109375 2.87890625 C-8.109375 2.21890625 -8.109375 1.55890625 -8.109375 0.87890625 C-5.27553392 0.05375841 -2.94002249 -0.20045608 0 0 Z " fill="#C0C1C2" transform="translate(702.109375,577.12109375)"/>
<path d="M0 0 C2.97 0 5.94 0 9 0 C9 0.99 9 1.98 9 3 C6.69 3 4.38 3 2 3 C2 5.31 2 7.62 2 10 C1.34 10 0.68 10 0 10 C0 6.7 0 3.4 0 0 Z " fill="#505152" transform="translate(657,350)"/>
<path d="M0 0 C1.98 0 3.96 0 6 0 C6 2.31 6 4.62 6 7 C4.02 7.99 4.02 7.99 2 9 C1.79913557 5.28400809 1.8480563 4.22791555 4 1 C2.68 0.67 1.36 0.34 0 0 Z " fill="#F8D75D" transform="translate(682,354)"/>
<path d="M0 0 C0 3.31439938 -0.16781344 4.2915503 -2 7 C-4.24096344 8.81140232 -6.58768867 10.42619261 -9 12 C-8.67 10.68 -8.34 9.36 -8 8 C-7.34 8 -6.68 8 -6 8 C-5.7525 7.4225 -5.505 6.845 -5.25 6.25 C-3.83316683 3.6997003 -2.12372463 1.98214299 0 0 Z " fill="#413B26" transform="translate(625,405)"/>
<path d="M0 0 C0.79921875 0.38027344 1.5984375 0.76054687 2.421875 1.15234375 C3.02515625 1.45269531 3.6284375 1.75304687 4.25 2.0625 C3.92 2.7225 3.59 3.3825 3.25 4.0625 C-0.23670834 2.9530928 -3.52484237 1.79912334 -6.75 0.0625 C-7.08 0.7225 -7.41 1.3825 -7.75 2.0625 C-8.41 1.7325 -9.07 1.4025 -9.75 1.0625 C-8.75 -0.9375 -8.75 -0.9375 -6.984375 -1.68359375 C-4.10090381 -2.01126093 -2.59330077 -1.25851361 0 0 Z " fill="#E2B324" transform="translate(655.75,404.9375)"/>
<path d="M0 0 C0.66 0.66 1.32 1.32 2 2 C2.66 1.34 3.32 0.68 4 0 C4 2.31 4 4.62 4 7 C2.02 7 0.04 7 -2 7 C-1.34 4.69 -0.68 2.38 0 0 Z " fill="#F6C931" transform="translate(684,375)"/>
<path d="M0 0 C2 3 4 6 6 9 C5.34 10.32 4.68 11.64 4 13 C3.34 12.67 2.68 12.34 2 12 C1.4375 9.3125 1.4375 9.3125 1 6 C0.814375 4.88625 0.62875 3.7725 0.4375 2.625 C0.293125 1.75875 0.14875 0.8925 0 0 Z " fill="#E6B522" transform="translate(638,382)"/>
<path d="M0 0 C-0.33 3.63 -0.66 7.26 -1 11 C-4.81176471 5.91764706 -4.81176471 5.91764706 -5 3 C-3.38441968 0.84589291 -2.74502455 0 0 0 Z " fill="#E4B425" transform="translate(638,379)"/>
<path d="M0 0 C0.66 0.33 1.32 0.66 2 1 C-0.31 3.64 -2.62 6.28 -5 9 C-5.66 8.34 -6.32 7.68 -7 7 C-4.69 4.69 -2.38 2.38 0 0 Z " fill="#DCAC24" transform="translate(614,409)"/>
<path d="M0 0 C-1.11666174 3.34998521 -1.74694925 3.79340222 -4.5625 5.6875 C-5.20316406 6.12449219 -5.84382812 6.56148438 -6.50390625 7.01171875 C-6.99761719 7.33785156 -7.49132812 7.66398437 -8 8 C-8.66 7.67 -9.32 7.34 -10 7 C-8.71372289 5.82739389 -7.42080217 4.6620717 -6.125 3.5 C-5.04605469 2.52546875 -5.04605469 2.52546875 -3.9453125 1.53125 C-2 0 -2 0 0 0 Z " fill="#DAAA21" transform="translate(634,392)"/>
<path d="M0 0 C0.66 0.66 1.32 1.32 2 2 C4.06874034 2.6425235 4.06874034 2.6425235 6 3 C5.01 4.32 4.02 5.64 3 7 C1.68 5.68 0.36 4.36 -1 3 C-0.67 2.01 -0.34 1.02 0 0 Z " fill="#DEB32B" transform="translate(709,383)"/>
<path d="M0 0 C1.4606285 2.64738916 2 3.89448334 2 7 C0.68 7 -0.64 7 -2 7 C-2.125 4.625 -2.125 4.625 -2 2 C-1.34 1.34 -0.68 0.68 0 0 Z " fill="#F2C530" transform="translate(663,374)"/>
<path d="M0 0 C0.33 0 0.66 0 1 0 C1 3.96 1 7.92 1 12 C1.66 12 2.32 12 3 12 C2.67 12.99 2.34 13.98 2 15 C1.34 15 0.68 15 0 15 C0 10.05 0 5.1 0 0 Z " fill="#332F27" transform="translate(604,404)"/>
<path d="M0 0 C0.86625 0.556875 0.86625 0.556875 1.75 1.125 C0.5625 2.6875 0.5625 2.6875 -1.25 4.125 C-3.9375 3.8125 -3.9375 3.8125 -6.25 3.125 C-6.25 2.465 -6.25 1.805 -6.25 1.125 C-2.80384615 -1.09038462 -2.80384615 -1.09038462 0 0 Z " fill="#EDBA20" transform="translate(629.25,398.875)"/>
<path d="M0 0 C0 3 0 3 0 3 Z M2 1 C2.99 1.33 3.98 1.66 5 2 C4.01 2.33 3.02 2.66 2 3 C2 2.34 2 1.68 2 1 Z M-2 3 C-0.68 3 0.64 3 2 3 C2 3.66 2 4.32 2 5 C0.35 5.66 -1.3 6.32 -3 7 C-3 4 -3 4 -2 3 Z " fill="#D6D7D8" transform="translate(731,578)"/>
<path d="M0 0 C0.66 0.33 1.32 0.66 2 1 C0.35 2.98 -1.3 4.96 -3 7 C-3.99 6.67 -4.98 6.34 -6 6 C-4.02 4.02 -2.04 2.04 0 0 Z " fill="#E4B627" transform="translate(704,392)"/>
<path d="M0 0 C2.625 0.375 2.625 0.375 5 1 C3.515 2.485 3.515 2.485 2 4 C0.68 3.34 -0.64 2.68 -2 2 C-1.34 1.34 -0.68 0.68 0 0 Z " fill="#D3D3D4" transform="translate(683,569)"/>
</svg>
